<svg width="300" height="301" viewBox="0 0 300 301" fill="none" xmlns="http://www.w3.org/2000/svg">
<rect y="0.19043" width="300" height="300" rx="23.8095" fill="#81B000"/>
<path d="M93.957 156.606C97.8041 156.606 117.761 172.234 117.761 178.726C117.761 180.65 115.356 184.737 114.394 186.42C102.132 207.098 88.6674 227.054 73.5196 245.568C73.0388 246.29 72.3174 247.011 72.3174 247.732C72.3174 248.694 72.7983 249.656 72.7983 250.858C72.7983 253.262 71.1152 254.946 69.4322 254.946C68.4704 254.946 67.5086 254.465 66.7873 253.984C65.5851 253.262 52.3609 240.279 49.9565 237.874C46.1095 234.268 42.5029 230.421 42.5029 228.016C42.5029 225.852 44.6668 223.929 46.1095 222.486C58.3719 209.262 82.1755 174.879 91.0718 158.77C91.7931 157.567 92.274 156.606 93.957 156.606ZM49.2352 67.4023C49.2352 62.3531 63.6616 42.1561 68.4704 42.1561C74.241 42.1561 111.028 67.8832 111.028 72.2111C111.028 75.3368 108.143 79.1839 104.296 83.9927C97.5636 92.6485 94.4379 95.7742 90.5909 95.7742C88.1865 95.7742 84.3394 93.1294 82.4159 91.6867C72.7983 84.2331 62.4594 76.539 51.88 71.0089C50.197 70.0472 49.2352 69.3258 49.2352 67.4023ZM40.5794 119.337C40.5794 114.288 55.4866 94.3316 60.055 94.3316C65.1042 94.3316 100.93 121.742 100.93 126.551C100.93 130.157 86.7438 149.873 80.4924 149.873C77.8476 149.873 74.241 146.988 72.3174 145.305C63.902 137.611 55.0058 130.398 45.3882 124.387C43.4646 123.184 40.5794 121.742 40.5794 119.337ZM200.232 99.8617V207.338C200.232 211.185 203.357 214.071 206.964 214.071H222.833C232.21 214.071 241.587 213.349 251.205 213.349C257.937 213.349 258.418 216.475 258.418 223.929V229.94C258.418 244.366 257.937 246.771 251.445 246.771C241.828 246.771 232.21 246.049 222.833 246.049H143.247C133.63 246.049 124.252 246.771 114.875 246.771C108.624 246.771 107.422 244.126 107.422 237.153V223.929C107.422 216.475 108.143 213.349 114.635 213.349C124.252 213.349 133.63 214.071 143.247 214.071H157.433C161.04 214.071 164.166 210.945 164.166 207.338V98.9C164.166 93.6103 161.761 90.9654 156.231 90.9654H152.865C143.969 90.9654 135.072 91.6867 125.936 91.6867C120.165 91.6867 118.963 89.2823 118.963 82.7905V69.0854C118.963 61.6317 119.684 58.9869 126.176 58.9869C135.072 58.9869 143.969 59.7082 152.865 59.7082H214.177C223.314 59.7082 232.21 58.9869 241.347 58.9869C247.598 58.9869 248.079 61.8722 248.079 69.0854V75.0964C248.079 90.0037 247.598 91.6867 241.106 91.6867C231.97 91.6867 223.073 90.9654 214.177 90.9654H208.406C202.155 90.9654 200.232 93.8507 200.232 99.8617Z" fill="white"/>
</svg>
