<svg width="218" height="104" viewBox="0 0 218 104" fill="none" xmlns="http://www.w3.org/2000/svg">
<rect width="218" height="104" rx="10" fill="#81B000"/>
<path d="M41.3759 54.8348C42.8421 54.8348 50.4482 60.7913 50.4482 63.2656C50.4482 63.9987 49.5318 65.5565 49.1652 66.198C44.4916 74.0789 39.3599 81.685 33.5866 88.7411C33.4033 89.0161 33.1284 89.291 33.1284 89.5659C33.1284 89.9324 33.3117 90.299 33.3117 90.7572C33.3117 91.6736 32.6702 92.315 32.0288 92.315C31.6622 92.315 31.2957 92.1318 31.0207 91.9485C30.5625 91.6736 25.5224 86.7251 24.606 85.8087C23.1398 84.4341 21.7652 82.9679 21.7652 82.0515C21.7652 81.2268 22.59 80.4936 23.1398 79.9438C27.8134 74.9037 36.8856 61.7993 40.2763 55.6595C40.5512 55.2013 40.7344 54.8348 41.3759 54.8348ZM24.3311 20.8368C24.3311 18.9124 29.8294 11.2147 31.6622 11.2147C33.8615 11.2147 47.8823 21.0201 47.8823 22.6696C47.8823 23.8609 46.7826 25.3271 45.3164 27.1599C42.7505 30.4589 41.5592 31.6502 40.093 31.6502C39.1766 31.6502 37.7104 30.6421 36.9773 30.0923C33.3117 27.2515 29.3712 24.3191 25.3391 22.2114C24.6977 21.8448 24.3311 21.5699 24.3311 20.8368ZM21.0321 40.6308C21.0321 38.7064 26.7137 31.1003 28.4548 31.1003C30.3793 31.1003 44.0334 41.5472 44.0334 43.3799C44.0334 44.7545 38.6268 52.2689 36.2441 52.2689C35.2361 52.2689 33.8615 51.1692 33.1284 50.5278C29.9211 47.5953 26.5304 44.8462 22.8649 42.5552C22.1318 42.097 21.0321 41.5472 21.0321 40.6308ZM81.8803 33.208V74.1706C81.8803 75.6368 83.0716 76.7365 84.4462 76.7365H90.4943C94.0682 76.7365 97.6421 76.4615 101.308 76.4615C103.874 76.4615 104.057 77.6528 104.057 80.4936V82.7846C104.057 88.2829 103.874 89.1993 101.399 89.1993C97.7338 89.1993 94.0682 88.9244 90.4943 88.9244H60.1619C56.4963 88.9244 52.9224 89.1993 49.3485 89.1993C46.9659 89.1993 46.5077 88.1913 46.5077 85.5338V80.4936C46.5077 77.6528 46.7826 76.4615 49.2569 76.4615C52.9224 76.4615 56.4963 76.7365 60.1619 76.7365H65.5686C66.9431 76.7365 68.1344 75.5452 68.1344 74.1706V32.8415C68.1344 30.8254 67.2181 29.8174 65.1104 29.8174H63.8274C60.4368 29.8174 57.0462 30.0923 53.5639 30.0923C51.3645 30.0923 50.9064 29.1759 50.9064 26.7017V21.4783C50.9064 18.6375 51.1813 17.6294 53.6555 17.6294C57.0462 17.6294 60.4368 17.9044 63.8274 17.9044H87.1953C90.6776 17.9044 94.0682 17.6294 97.5505 17.6294C99.9331 17.6294 100.116 18.7291 100.116 21.4783V23.7692C100.116 29.4508 99.9331 30.0923 97.4589 30.0923C93.9766 30.0923 90.5859 29.8174 87.1953 29.8174H84.996C82.6134 29.8174 81.8803 30.9171 81.8803 33.208ZM146.027 74.6288V17.2629C146.027 15.7967 145.661 12.4977 145.661 11.6729C145.661 10.4816 146.669 10.2983 147.677 10.2983C148.685 10.2983 156.474 10.9398 160.69 11.398C161.423 11.4896 162.797 11.5813 162.797 12.6809C162.797 13.3224 162.339 13.5973 161.789 14.1472C160.873 15.0636 160.873 16.1632 160.873 17.5378V33.3913C160.873 34.8575 161.973 35.9572 163.439 35.9572H175.169C179.109 35.9572 183.049 35.7739 186.99 35.7739C189.373 35.7739 189.556 36.7819 189.556 39.8977V46.0375C189.556 48.6033 189.098 49.5197 186.99 49.5197C183.049 49.5197 179.109 49.2448 175.169 49.2448H163.439C161.973 49.2448 160.873 50.4361 160.873 51.8107V74.6288C160.873 76.0033 161.973 77.1946 163.439 77.1946H179.842C183.874 77.1946 187.998 76.9197 192.122 76.9197C194.596 76.9197 194.779 77.9278 194.779 81.0435V86.3585C194.779 89.4742 194.596 90.5739 192.122 90.5739C187.998 90.5739 183.966 90.299 179.842 90.299H129.807C125.684 90.299 121.56 90.5739 117.436 90.5739C114.962 90.5739 114.779 89.4742 114.779 86.3585V81.2268C114.779 78.0194 115.054 76.9197 117.436 76.9197C121.56 76.9197 125.684 77.1946 129.807 77.1946H143.462C144.928 77.1946 145.936 76.095 146.027 74.6288Z" fill="white"/>
</svg>
