<svg width="300" height="300" viewBox="0 0 300 300" fill="none" xmlns="http://www.w3.org/2000/svg">
<rect width="300" height="300" rx="23.8095" fill="#007EB0"/>
<path d="M124.493 81.3478H101.411C99.2467 81.3478 95.1592 81.5883 95.1592 84.714C95.1592 86.1566 96.3614 87.8397 97.0828 89.0419C100.208 94.3316 118.963 128.474 118.963 132.081C118.963 135.206 115.356 137.37 112.711 138.813C111.269 139.534 109.105 140.496 109.105 142.66C109.105 144.584 111.75 144.584 113.192 144.584H124.493C128.1 144.584 131.225 141.698 131.225 137.851V88.0801C131.225 84.2331 128.34 81.3478 124.493 81.3478ZM201.434 81.3478H176.188C172.581 81.3478 169.455 84.2331 169.455 88.0801V137.851C169.455 141.698 172.581 144.584 176.188 144.584H188.21C189.893 144.584 193.018 144.584 193.018 142.42C193.018 140.737 191.095 139.534 187.969 137.611L185.805 136.168C184.122 134.966 182.199 133.523 182.199 131.119C182.199 129.436 184.843 126.07 186.046 124.387C189.893 118.616 207.445 90.4845 207.445 84.9544C207.445 81.5883 204.079 81.3478 201.434 81.3478ZM90.8313 48.1671H209.849C219.948 48.1671 230.046 47.4458 240.145 47.4458C247.358 47.4458 247.358 51.0524 247.358 61.1509V71.2494C247.358 79.6648 246.396 81.8287 239.904 81.8287C236.778 81.8287 233.653 81.5883 230.767 81.5883C229.325 81.5883 227.401 81.8287 227.401 83.5118C227.401 84.4736 228.844 84.9544 229.325 85.1949C232.931 86.6375 246.877 92.8889 246.877 96.736C246.877 98.9 244.713 99.3808 243.03 99.3808C238.702 99.6213 239.183 99.8617 231.729 113.326C228.603 119.097 220.188 132.562 216.101 137.851C215.379 139.053 214.177 140.256 214.177 141.939C214.177 144.584 217.303 144.584 221.15 144.584C230.527 144.584 239.904 144.103 249.041 144.103C255.773 144.103 256.494 146.748 256.494 154.922V167.906C256.494 176.322 255.773 178.966 249.041 178.966C239.183 178.966 229.084 178.245 218.986 178.245H176.188C172.581 178.245 169.455 181.13 169.455 184.977V213.83C169.455 226.093 170.177 238.355 170.177 250.618C170.177 256.869 167.291 257.59 158.876 257.59H141.324C133.149 257.59 130.263 256.869 130.263 250.618C130.263 238.355 131.225 226.093 131.225 213.83V184.977C131.225 181.13 128.1 178.245 124.493 178.245H81.935C72.077 178.245 61.9785 178.966 51.88 178.966C45.1477 178.966 44.6668 176.081 44.6668 168.147V156.125C44.6668 145.786 44.9073 143.862 54.044 143.862C59.3337 143.862 67.5086 144.584 80.4924 144.584C84.099 144.584 87.7056 144.584 87.7056 140.977C87.7056 136.168 68.9513 104.671 65.3447 98.9C64.3829 97.4573 62.9403 95.5338 62.9403 93.8507C62.9403 90.2441 70.3939 86.878 73.5196 85.1949C74.241 84.714 75.4432 83.9927 75.4432 83.0309C75.4432 82.3096 74.241 81.5883 72.7983 81.5883C68.7108 81.5883 64.8638 81.8287 60.7763 81.8287C54.044 81.8287 53.3227 79.1839 53.3227 71.0089V58.0251C53.3227 50.0906 53.8036 47.4458 60.5359 47.4458C70.6344 47.4458 80.7328 48.1671 90.8313 48.1671Z" fill="white"/>
</svg>
