<svg width="151" height="151" viewBox="0 0 151 151" fill="none" xmlns="http://www.w3.org/2000/svg">
<g clip-path="url(#clip0_2411_730)">
<circle cx="75.5" cy="75.5" r="75" fill="#888888"/>
<path d="M51.0313 99.2929C51.7813 98.3286 52.5313 97.3643 53.3884 96.5072C57.7813 91.7929 61.5313 86.7572 65.067 81.5072C69.8884 74.4357 73.9598 66.8286 77.2813 58.7929H60.7813C54.7813 58.7929 52.8527 56.3286 52.8527 50.65C52.8527 45.2929 55.7455 43.0429 60.7813 43.0429H80.7098V32.4357C80.7098 26.7572 83.2813 24.6143 88.8527 24.6143C94.1027 24.6143 96.1384 27.5072 96.1384 32.4357V43.0429H118.103C124.21 43.0429 126.031 45.4 126.031 51.1857C126.031 56.8643 123.138 58.7929 118.103 58.7929H99.4598C106.424 74.8643 111.674 83.3286 123.246 96.5072C125.067 98.65 126.567 100.579 126.567 103.471C126.567 108.079 122.388 113.329 117.674 113.329C112.638 113.329 107.817 104.757 105.353 100.9C101.924 95.4357 98.817 89.9715 96.1384 84.1857V119.114C96.1384 124.9 93.6741 127.043 87.9955 127.043C82.8527 127.043 80.7098 124.043 80.7098 119.114V83.9715C76.9598 91.9 72.567 99.1857 67.2098 106.15C65.067 109.043 61.7455 113.65 57.7813 113.65C54.9955 113.65 52.5313 111.614 51.0313 109.471V119.221C51.0313 124.9 48.3527 127.15 42.7813 127.15C37.4241 127.15 35.1741 124.257 35.1741 119.221V79.4715C34.1027 80.1143 32.9241 80.4357 31.6384 80.4357C26.4955 80.4357 23.1741 75.5072 23.1741 70.6857C23.1741 68.4357 23.2813 66.8286 27.8884 60.6143C34.1027 52.15 38.3884 40.15 40.6384 31.15C41.7098 26.8643 43.317 25.0429 47.9241 25.0429C51.9955 25.0429 56.3884 26.7572 56.3884 31.4714C56.3884 36.4 52.7455 46.9 51.0313 51.7215V99.2929Z" fill="white"/>
</g>
<defs>
<clipPath id="clip0_2411_730">
<rect width="150" height="150" fill="white" transform="translate(0.5 0.5)"/>
</clipPath>
</defs>
</svg>
