<svg width="250" height="250" viewBox="0 0 250 250" fill="none" xmlns="http://www.w3.org/2000/svg">
<rect width="250" height="250" fill="#00847F"/>
<circle cx="125" cy="125" r="125" fill="#00847F"/>
<circle cx="124.925" cy="124.919" r="105.418" stroke="white" stroke-width="9.20024"/>
<path d="M67.1988 164.165L73.8125 103.696C73.9525 102.416 72.95 101.298 71.6622 101.298H56.5225C55.3278 101.298 54.3594 100.33 54.3594 99.1349V85.4454C54.3594 84.2507 55.3278 83.2822 56.5225 83.2822H194.284C195.478 83.2822 196.447 84.2507 196.447 85.4454V99.1349C196.447 100.33 195.478 101.298 194.284 101.298H180.151C178.868 101.298 177.867 102.409 178 103.685L184.301 164.176C184.434 165.452 183.433 166.563 182.149 166.563H173.795C172.742 166.563 171.842 165.804 171.663 164.766L161.064 103.095C160.885 102.057 159.985 101.298 158.932 101.298H91.9026C90.8368 101.298 89.9299 102.074 89.7654 103.127L80.1393 164.734C79.9748 165.787 79.0679 166.563 78.0021 166.563H69.3491C68.0613 166.563 67.0588 165.445 67.1988 164.165Z" fill="white"/>
</svg>
