<svg width="704" height="121" viewBox="0 0 704 121" fill="none" xmlns="http://www.w3.org/2000/svg">
<path d="M65.7906 18.6141V32.2755H43.3038V103H26.3783V32.2755H3.89149V18.6141H65.7906ZM118.64 93.4492C116.787 96.5119 113.764 99.091 109.573 101.187C105.382 103.201 100.869 104.209 96.0327 104.209C91.8416 104.209 88.0535 103.363 84.6684 101.67C81.2833 99.9776 78.6236 97.6402 76.6892 94.6581C74.7549 91.676 73.7877 88.2506 73.7877 84.3819C73.7877 78.1759 76.0847 73.0982 80.6788 69.1489C85.3535 65.1996 92.3252 63.225 101.594 63.225H118.64C118.479 58.9533 117.23 55.5682 114.893 53.0697C112.636 50.4906 109.493 49.201 105.463 49.201C101.916 49.201 98.9745 50.1682 96.6372 52.1025C94.2998 53.9563 92.8088 56.5757 92.164 59.9608H75.2385C76.0444 55.1249 77.7773 50.8129 80.437 47.0248C83.1773 43.1562 86.7236 40.174 91.0759 38.0785C95.5088 35.9024 100.466 34.8143 105.946 34.8143C111.588 34.8143 116.666 35.983 121.179 38.3203C125.773 40.6576 129.36 44.0024 131.939 48.3547C134.518 52.707 135.808 57.8249 135.808 63.7086V103H118.64V93.4492ZM100.989 90.5476C103.81 90.5476 106.551 89.9432 109.21 88.7342C111.951 87.5252 114.207 85.7118 115.981 83.2938C117.754 80.8759 118.64 78.0147 118.64 74.7102V74.2266H102.561C98.6924 74.2266 95.7909 74.9923 93.8565 76.5236C92.0028 78.055 91.0759 80.0699 91.0759 82.5685C91.0759 84.9864 91.9222 86.9207 93.6148 88.3715C95.3879 89.8223 97.8461 90.5476 100.989 90.5476ZM169.445 45.8159C171.621 42.592 174.604 39.9725 178.392 37.9576C182.26 35.9427 186.653 34.9352 191.569 34.9352C197.292 34.9352 202.45 36.3456 207.044 39.1666C211.719 41.9875 215.386 46.0174 218.046 51.2562C220.786 56.4145 222.156 62.419 222.156 69.2698C222.156 76.1206 220.786 82.2058 218.046 87.5252C215.386 92.7641 211.719 96.8343 207.044 99.7358C202.45 102.637 197.292 104.088 191.569 104.088C186.572 104.088 182.18 103.121 178.392 101.187C174.684 99.1716 171.702 96.5925 169.445 93.4492V103H152.52V13.5365H169.445V45.8159ZM204.868 69.2698C204.868 65.2399 204.022 61.7742 202.329 58.8727C200.717 55.8906 198.541 53.6339 195.801 52.1025C193.141 50.5711 190.24 49.8055 187.096 49.8055C184.033 49.8055 181.132 50.6114 178.392 52.2234C175.732 53.7548 173.556 56.0115 171.863 58.9936C170.251 61.9757 169.445 65.4817 169.445 69.5116C169.445 73.5415 170.251 77.0475 171.863 80.0296C173.556 83.0118 175.732 85.3088 178.392 86.9207C181.132 88.4521 184.033 89.2178 187.096 89.2178C190.24 89.2178 193.141 88.4118 195.801 86.7998C198.541 85.1879 200.717 82.8909 202.329 79.9087C204.022 76.9266 204.868 73.3803 204.868 69.2698ZM251.381 13.5365V103H234.456V13.5365H251.381ZM330.365 68.0609C330.365 70.4788 330.204 72.6549 329.882 74.5893H280.919C281.322 79.4252 283.014 83.2132 285.996 85.9536C288.978 88.6939 292.646 90.0641 296.998 90.0641C303.284 90.0641 307.758 87.364 310.417 81.964H328.673C326.738 88.4118 323.031 93.7313 317.55 97.9223C312.07 102.033 305.34 104.088 297.361 104.088C290.913 104.088 285.11 102.678 279.951 99.8567C274.874 96.9552 270.884 92.885 267.983 87.6461C265.162 82.4073 263.751 76.3624 263.751 69.5116C263.751 62.5802 265.162 56.4951 267.983 51.2562C270.804 46.0174 274.753 41.9875 279.831 39.1666C284.908 36.3456 290.752 34.9352 297.361 34.9352C303.728 34.9352 309.41 36.3053 314.407 39.0457C319.485 41.786 323.394 45.695 326.134 50.7726C328.955 55.7697 330.365 61.5324 330.365 68.0609ZM312.835 63.225C312.755 58.8727 311.183 55.407 308.12 52.8279C305.058 50.1682 301.31 48.8383 296.877 48.8383C292.686 48.8383 289.14 50.1279 286.238 52.707C283.417 55.2055 281.684 58.7115 281.04 63.225H312.835ZM415.05 103L396.432 70.1161H388.452V103H371.527V18.6141H403.202C409.73 18.6141 415.291 19.7828 419.886 22.1201C424.48 24.3769 427.905 27.4799 430.162 31.4292C432.499 35.2979 433.668 39.6502 433.668 44.486C433.668 50.0473 432.056 55.0846 428.832 59.5981C425.608 64.031 420.812 67.0937 414.445 68.7862L434.635 103H415.05ZM388.452 57.422H402.597C407.191 57.422 410.617 56.3339 412.874 54.1578C415.13 51.901 416.259 48.798 416.259 44.8487C416.259 40.98 415.13 37.9979 412.874 35.9024C410.617 33.7262 407.191 32.6381 402.597 32.6381H388.452V57.422ZM511.238 68.0609C511.238 70.4788 511.077 72.6549 510.754 74.5893H461.791C462.194 79.4252 463.887 83.2132 466.869 85.9536C469.851 88.6939 473.518 90.0641 477.871 90.0641C484.157 90.0641 488.63 87.364 491.29 81.964H509.546C507.611 88.4118 503.904 93.7313 498.423 97.9223C492.942 102.033 486.212 104.088 478.233 104.088C471.785 104.088 465.982 102.678 460.824 99.8567C455.747 96.9552 451.757 92.885 448.855 87.6461C446.034 82.4073 444.624 76.3624 444.624 69.5116C444.624 62.5802 446.034 56.4951 448.855 51.2562C451.676 46.0174 455.626 41.9875 460.703 39.1666C465.781 36.3456 471.624 34.9352 478.233 34.9352C484.601 34.9352 490.283 36.3053 495.28 39.0457C500.357 41.786 504.266 45.695 507.007 50.7726C509.828 55.7697 511.238 61.5324 511.238 68.0609ZM493.708 63.225C493.627 58.8727 492.056 55.407 488.993 52.8279C485.93 50.1682 482.183 48.8383 477.75 48.8383C473.559 48.8383 470.012 50.1279 467.111 52.707C464.29 55.2055 462.557 58.7115 461.912 63.225H493.708ZM519.24 69.5116C519.24 62.5802 520.65 56.5354 523.471 51.3771C526.292 46.1383 530.201 42.1084 535.198 39.2875C540.195 36.3859 545.918 34.9352 552.366 34.9352C560.667 34.9352 567.518 37.0307 572.918 41.2218C578.399 45.3323 582.066 51.1353 583.92 58.6309H565.664C564.697 55.7294 563.045 53.4727 560.708 51.8607C558.451 50.1682 555.63 49.3219 552.245 49.3219C547.409 49.3219 543.58 51.095 540.76 54.6413C537.939 58.107 536.528 63.0638 536.528 69.5116C536.528 75.8788 537.939 80.8356 540.76 84.3819C543.58 87.8476 547.409 89.5805 552.245 89.5805C559.096 89.5805 563.569 86.5178 565.664 80.3923H583.92C582.066 87.6461 578.399 93.4089 572.918 97.6805C567.437 101.952 560.587 104.088 552.366 104.088C545.918 104.088 540.195 102.678 535.198 99.8567C530.201 96.9552 526.292 92.9253 523.471 87.767C520.65 82.5282 519.24 76.443 519.24 69.5116Z" fill="#222222"/>
<circle cx="656.5" cy="60.5" r="47.5" fill="#00847F"/>
<circle cx="656.471" cy="60.4691" r="40.0589" stroke="white" stroke-width="3.49609"/>
<path d="M634.535 75.3828L637.048 52.4049C637.102 51.9184 636.721 51.4935 636.231 51.4935H630.478C630.024 51.4935 629.656 51.1255 629.656 50.6715V45.4695C629.656 45.0155 630.024 44.6475 630.478 44.6475H682.827C683.281 44.6475 683.649 45.0155 683.649 45.4695V50.6715C683.649 51.1255 683.281 51.4935 682.827 51.4935H677.457C676.969 51.4935 676.589 51.9156 676.64 52.4006L679.034 75.387C679.084 75.8721 678.704 76.2942 678.216 76.2942H675.042C674.642 76.2942 674.3 76.0059 674.232 75.6114L670.204 52.1762C670.136 51.7818 669.794 51.4935 669.394 51.4935H643.923C643.518 51.4935 643.173 51.7885 643.111 52.1886L639.453 75.5991C639.39 75.9992 639.045 76.2942 638.64 76.2942H635.352C634.863 76.2942 634.482 75.8693 634.535 75.3828Z" fill="white"/>
</svg>
