<svg width="300" height="300" viewBox="0 0 300 300" fill="none" xmlns="http://www.w3.org/2000/svg">
<g clip-path="url(#clip0_2478_68)">
<circle cx="150" cy="150" r="150" fill="#888888"/>
<path d="M50.4464 131.057V65.8039C50.4464 62.8228 51.3849 60.3938 53.2619 58.5168C55.2493 56.6398 57.7888 55.7013 60.8803 55.7013C63.8613 55.7013 66.18 56.4742 67.8361 58.0199C69.4923 59.5657 70.486 61.4427 70.8172 63.6509L70.9828 65.1414C73.4119 61.7187 76.2826 59.2897 79.5949 57.8543C82.9072 56.419 86.8268 55.7013 91.3537 55.7013C95.9909 55.7013 100.076 56.695 103.609 58.6824C107.253 60.5594 110.289 63.3197 112.718 66.9632C115.368 63.5405 118.68 60.8354 122.655 58.848C126.74 56.7502 131.378 55.7013 136.567 55.7013C145.621 55.7013 152.632 58.4064 157.6 63.8165C162.679 69.2266 165.219 77.3418 165.219 88.1621V131.057C165.219 134.259 164.225 136.798 162.237 138.675C160.36 140.552 157.766 141.491 154.453 141.491C151.362 141.491 148.822 140.552 146.835 138.675C144.958 136.798 144.02 134.259 144.02 131.057V91.4744C144.02 85.2914 142.916 80.8198 140.707 78.0595C138.609 75.2992 135.463 73.9191 131.267 73.9191C127.624 73.9191 124.532 75.244 121.993 77.8939C119.564 80.5438 118.349 84.629 118.349 90.1495V131.057C118.349 134.259 117.355 136.798 115.368 138.675C113.491 140.552 110.952 141.491 107.75 141.491C104.658 141.491 102.119 140.552 100.131 138.675C98.2543 136.798 97.3158 134.259 97.3158 131.057V91.4744C97.3158 84.8498 96.1565 80.2677 93.8379 77.7283C91.5193 75.1888 88.483 73.9191 84.729 73.9191C82.852 73.9191 81.0854 74.3055 79.4293 75.0784C77.8835 75.7409 76.5034 76.7898 75.2889 78.2251C74.1848 79.6605 73.3015 81.4822 72.639 83.6905C71.9765 85.7883 71.6453 88.3277 71.6453 91.3088V131.057C71.6453 134.259 70.6516 136.798 68.6642 138.675C66.7872 140.552 64.1926 141.491 60.8803 141.491C57.7888 141.491 55.2493 140.552 53.2619 138.675C51.3849 136.798 50.4464 134.259 50.4464 131.057ZM247.351 93.2962C247.351 96.3877 246.413 98.9272 244.536 100.915C242.659 102.902 240.119 103.896 236.917 103.896H200.316V104.889C200.316 107.65 200.592 110.189 201.144 112.508C201.696 114.716 202.58 116.648 203.794 118.304C205.009 119.96 206.61 121.285 208.597 122.279C210.584 123.162 212.958 123.604 215.719 123.604C219.252 123.604 221.902 123.218 223.668 122.445C225.435 121.561 226.87 120.512 227.974 119.298C228.968 118.304 230.072 117.476 231.286 116.814C232.611 116.151 234.102 115.82 235.758 115.82C238.408 115.82 240.561 116.648 242.217 118.304C243.984 119.96 244.867 122.169 244.867 124.929C244.867 126.475 244.481 128.02 243.708 129.566C243.045 131.112 241.996 132.547 240.561 133.872C239.567 134.755 238.408 135.694 237.083 136.688C235.758 137.571 234.102 138.399 232.115 139.172C230.238 139.834 227.919 140.386 225.159 140.828C222.509 141.27 219.417 141.491 215.884 141.491C209.701 141.491 204.291 140.552 199.654 138.675C195.016 136.798 191.152 134.203 188.061 130.891C185.08 127.579 182.816 123.604 181.27 118.967C179.835 114.329 179.117 109.361 179.117 104.061V92.7994C179.117 80.3229 182.098 71.0484 188.061 64.9758C194.133 58.7928 202.524 55.7013 213.234 55.7013C224.496 55.7013 232.998 58.7928 238.739 64.9758C244.481 71.1588 247.351 79.9917 247.351 91.4744V93.2962ZM213.4 73.5879C209.204 73.5879 206.113 74.9128 204.125 77.5627C202.138 80.2125 200.868 83.8009 200.316 88.3277V88.8246H226.318V88.3277C225.987 83.1384 224.717 79.3844 222.509 77.0658C220.411 74.7472 217.375 73.5879 213.4 73.5879ZM50.4464 239.057V173.804C50.4464 170.823 51.3849 168.394 53.2619 166.517C55.2493 164.64 57.7888 163.701 60.8803 163.701C63.8613 163.701 66.18 164.474 67.8361 166.02C69.4923 167.566 70.486 169.443 70.8172 171.651L70.9828 173.141C73.4119 169.719 76.2826 167.29 79.5949 165.854C82.9072 164.419 86.8268 163.701 91.3537 163.701C95.9909 163.701 100.076 164.695 103.609 166.682C107.253 168.559 110.289 171.32 112.718 174.963C115.368 171.54 118.68 168.835 122.655 166.848C126.74 164.75 131.378 163.701 136.567 163.701C145.621 163.701 152.632 166.406 157.6 171.817C162.679 177.227 165.219 185.342 165.219 196.162V239.057C165.219 242.259 164.225 244.798 162.237 246.675C160.36 248.552 157.766 249.491 154.453 249.491C151.362 249.491 148.822 248.552 146.835 246.675C144.958 244.798 144.02 242.259 144.02 239.057V199.474C144.02 193.291 142.916 188.82 140.707 186.06C138.609 183.299 135.463 181.919 131.267 181.919C127.624 181.919 124.532 183.244 121.993 185.894C119.564 188.544 118.349 192.629 118.349 198.149V239.057C118.349 242.259 117.355 244.798 115.368 246.675C113.491 248.552 110.952 249.491 107.75 249.491C104.658 249.491 102.119 248.552 100.131 246.675C98.2543 244.798 97.3158 242.259 97.3158 239.057V199.474C97.3158 192.85 96.1565 188.268 93.8379 185.728C91.5193 183.189 88.483 181.919 84.729 181.919C82.852 181.919 81.0854 182.306 79.4293 183.078C77.8835 183.741 76.5034 184.79 75.2889 186.225C74.1848 187.66 73.3015 189.482 72.639 191.69C71.9765 193.788 71.6453 196.328 71.6453 199.309V239.057C71.6453 242.259 70.6516 244.798 68.6642 246.675C66.7872 248.552 64.1926 249.491 60.8803 249.491C57.7888 249.491 55.2493 248.552 53.2619 246.675C51.3849 244.798 50.4464 242.259 50.4464 239.057ZM250.664 201.462V211.399C250.664 217.03 250.001 222.219 248.676 226.967C247.351 231.604 245.198 235.634 242.217 239.057C239.346 242.369 235.648 244.964 231.121 246.841C226.594 248.607 221.184 249.491 214.89 249.491C208.928 249.491 203.684 248.607 199.157 246.841C194.74 245.074 191.042 242.535 188.061 239.222C185.08 235.8 182.816 231.77 181.27 227.132C179.835 222.385 179.117 217.14 179.117 211.399V201.462C179.117 188.985 182.209 179.6 188.392 173.307C194.685 166.903 203.518 163.701 214.89 163.701C226.484 163.701 235.316 166.903 241.389 173.307C247.572 179.6 250.664 188.985 250.664 201.462ZM214.89 231.604C217.761 231.604 220.135 231.107 222.012 230.113C223.999 229.009 225.545 227.519 226.649 225.642C227.753 223.765 228.526 221.557 228.968 219.017C229.409 216.478 229.63 213.717 229.63 210.736V202.124C229.63 195.389 228.471 190.31 226.152 186.888C223.944 183.354 220.19 181.588 214.89 181.588C209.701 181.588 205.947 183.354 203.629 186.888C201.42 190.421 200.316 195.5 200.316 202.124V210.736C200.316 213.717 200.482 216.478 200.813 219.017C201.255 221.557 202.028 223.765 203.132 225.642C204.236 227.519 205.726 229.009 207.603 230.113C209.591 231.107 212.02 231.604 214.89 231.604Z" fill="white"/>
</g>
<defs>
<clipPath id="clip0_2478_68">
<rect width="300" height="300" fill="white"/>
</clipPath>
</defs>
</svg>
