<svg width="300" height="300" viewBox="0 0 300 300" fill="none" xmlns="http://www.w3.org/2000/svg">
<g clip-path="url(#clip0_2485_86)">
<circle cx="150" cy="150" r="150" fill="#B000A4"/>
<path d="M55.2083 132.079C55.2083 127.992 59.5362 123.904 66.0282 117.412C70.5966 112.844 73.7224 110.68 77.0886 110.68C81.4166 110.68 95.3622 124.626 98.9689 128.232C101.854 131.118 114.598 144.102 114.598 147.227C114.598 151.074 97.5262 168.867 92.2365 168.867C90.5534 168.867 88.8703 167.424 85.2636 163.337C77.5695 154.441 69.154 146.025 60.2576 138.571C58.0936 136.888 55.2083 134.724 55.2083 132.079ZM240.349 141.457C230.251 149.632 232.174 149.151 217.507 159.971C216.545 160.692 215.584 161.413 214.862 161.894C211.015 164.539 209.332 165.741 209.332 168.386C209.332 170.55 210.534 171.512 211.977 172.955C215.103 176.561 218.469 179.687 221.835 183.053C231.453 192.431 242.994 202.289 254.295 209.742C255.738 210.704 257.18 211.906 257.18 213.59C257.18 219.841 238.426 238.355 232.174 238.355C227.365 238.355 205.245 215.032 200.917 210.223C191.059 199.644 175.189 179.687 172.785 175.359C171.342 172.955 170.38 171.752 169.178 171.752C167.014 171.752 167.014 173.916 167.014 175.84V208.54C167.014 215.032 167.495 221.524 167.495 228.016C167.495 238.115 163.167 247.011 153.79 251.339C142.489 256.629 127.101 257.11 114.838 257.11C108.587 257.11 99.2093 256.869 99.2093 226.333C99.2093 222.967 99.9307 219.841 104.018 219.841C104.98 219.841 107.144 220.081 110.27 220.562C113.395 221.043 117.243 221.284 120.609 221.284C129.746 221.284 129.746 219.12 129.746 210.223V197.72C129.746 195.797 129.746 192.911 127.101 192.911C125.418 192.911 123.494 194.354 122.292 195.316C104.499 207.578 87.6681 216.475 68.6731 226.573C64.5855 228.737 64.826 228.978 64.1047 232.104C63.6238 234.268 62.1811 235.47 60.7385 235.47C55.9296 235.47 39.8199 209.021 39.8199 205.174C39.8199 203.01 40.7817 202.529 45.831 200.606C47.0332 200.125 48.4759 199.403 50.3994 198.682C73.2415 188.583 94.8814 177.283 115.319 163.096C116.04 162.616 117.002 162.135 117.723 162.135C121.09 162.135 123.254 165.982 126.139 171.272C126.86 172.714 127.582 173.436 128.303 173.436C129.746 173.436 129.746 171.752 129.746 169.588V115.729C129.746 112.123 126.62 108.997 123.013 108.997H80.6952C70.1157 108.997 59.5362 109.718 48.9568 109.718C43.4266 109.718 42.9457 106.833 42.9457 100.1V86.6357C42.9457 79.9033 43.4266 77.0179 48.9568 77.0179C59.5362 77.0179 70.1157 77.4988 80.6952 77.4988H121.33C125.898 77.4988 129.746 75.5753 129.746 70.526V62.5914C129.746 57.3016 129.505 51.0501 129.265 48.8861C128.784 44.7986 128.784 44.3177 128.784 43.8368C128.784 40.4706 131.188 39.9897 133.833 39.9897C135.757 39.9897 159.08 41.9133 168.216 42.875C170.38 43.1155 173.987 43.3559 173.987 46.2412C173.987 47.9243 172.304 49.1266 170.861 49.8479C167.014 52.2523 167.014 55.1376 167.014 70.7664C167.014 75.8157 170.38 77.4988 174.708 77.4988H192.501C193.223 77.4988 196.108 77.4988 196.108 76.2966C196.108 74.6135 182.162 65.4767 179.758 64.034C178.315 63.0723 176.872 62.1105 176.872 60.1869C176.872 55.859 190.097 39.5088 194.665 39.5088C198.272 39.5088 214.381 51.2905 218.229 54.1759C224.48 58.9847 230.01 63.0723 230.01 66.198C230.01 68.1215 228.568 70.0451 227.365 71.4877C226.163 72.9304 225.201 74.1326 225.201 75.3348C225.201 77.2584 227.606 77.4988 228.808 77.4988C236.021 77.4988 242.994 77.0179 249.967 77.0179C255.497 77.0179 255.978 79.9033 255.978 86.6357V99.86C255.978 106.833 255.497 109.718 249.967 109.718C239.388 109.718 228.808 108.997 218.229 108.997H179.277C176.151 108.997 172.064 108.756 172.064 113.084C172.064 115.729 179.758 129.434 181.681 132.56C185.047 138.09 186.49 140.254 188.895 140.254C191.059 140.254 192.742 138.812 196.108 135.686C203.081 129.434 211.496 121.259 217.267 114.046C218.469 112.363 219.431 111.161 221.835 111.161C224.48 111.161 225.923 112.603 229.048 115.489C234.819 120.779 239.868 125.347 246.601 131.598C249.005 133.762 250.929 135.686 250.929 137.369C250.929 139.052 249.005 140.014 247.563 140.014C246.841 140.014 244.918 139.774 243.956 139.774C242.513 139.774 241.552 140.495 240.349 141.457Z" fill="white"/>
</g>
<defs>
<clipPath id="clip0_2485_86">
<rect width="300" height="300" fill="white"/>
</clipPath>
</defs>
</svg>
