<svg width="244" height="244" viewBox="0 0 244 244" fill="none" xmlns="http://www.w3.org/2000/svg">
<g clip-path="url(#clip0_2498_68)">
<path d="M112.489 12.2705C115.483 3.05738 128.517 3.0574 131.511 12.2705L153.432 79.7376C154.771 83.8578 158.61 86.6474 162.943 86.6474H233.882C243.569 86.6474 247.597 99.0436 239.759 104.738L182.369 146.435C178.864 148.981 177.397 153.495 178.736 157.615L200.657 225.082C203.651 234.295 193.106 241.956 185.269 236.262L127.878 194.565C124.373 192.019 119.627 192.019 116.122 194.565L58.7312 236.262C50.894 241.956 40.3493 234.295 43.3428 225.082L65.2642 157.615C66.6029 153.495 65.1363 148.981 61.6315 146.435L4.24049 104.738C-3.59665 99.0436 0.431124 86.6474 10.1184 86.6474H81.0575C85.3897 86.6474 89.2293 83.8578 90.568 79.7376L112.489 12.2705Z" fill="#FFCC00"/>
</g>
<defs>
<clipPath id="clip0_2498_68">
<rect width="244" height="244" fill="white"/>
</clipPath>
</defs>
</svg>
