<svg width="300" height="300" viewBox="0 0 300 300" fill="none" xmlns="http://www.w3.org/2000/svg">
<g clip-path="url(#clip0_2485_83)">
<circle cx="150" cy="150" r="150" fill="#B02F00"/>
<path d="M83.3401 152.036C85.985 152.036 96.0836 159.49 98.7284 161.413C101.373 163.337 107.625 167.184 107.625 170.791C107.625 175.359 78.0504 230.421 73.4819 238.596C72.5202 240.519 70.5966 243.645 70.5966 245.809C70.5966 247.732 71.5584 249.896 71.5584 251.82C71.5584 253.503 70.1157 255.186 68.4326 255.186C66.7495 255.186 59.5362 249.175 54.7274 245.088C53.0443 243.645 51.6016 242.443 50.8803 241.962C48.2354 239.798 38.6177 232.825 38.6177 229.459C38.6177 227.776 39.8199 226.093 41.7435 223.688C49.9185 214.07 56.6509 202.529 62.4216 191.709C66.2687 184.496 77.8099 161.654 80.6952 154.441C81.1761 153.238 81.657 152.036 83.3401 152.036ZM69.154 42.875C72.7606 42.875 83.5805 51.7714 86.2254 53.9354C89.8321 56.8207 98.7284 63.3127 101.854 66.198C103.056 67.1598 104.259 68.6024 104.259 70.0451C104.259 72.9304 98.0071 80.3841 95.3622 83.7503C91.7556 88.3187 88.8703 92.4063 85.0232 92.4063C83.0997 92.4063 78.5312 89.0401 75.4055 86.1548C71.7988 82.7886 61.2193 74.8539 52.0825 69.0833C50.8803 68.362 49.9185 67.6407 49.9185 66.198C49.9185 63.5531 54.4869 57.5421 58.0936 52.7332C63.8642 45.2795 65.5473 42.875 69.154 42.875ZM56.4105 92.6467C60.0171 92.6467 73.9628 102.986 77.5695 105.631C80.6952 108.035 94.4005 118.374 94.4005 121.74C94.4005 125.347 81.8974 144.582 76.3673 144.582C74.2033 144.582 71.318 141.938 69.8753 140.495C62.4216 134.003 49.4376 124.385 41.2626 119.336C39.8199 118.374 38.3773 117.412 38.3773 115.489C38.3773 112.363 50.8803 92.6467 56.4105 92.6467ZM162.927 198.682H200.917C204.042 198.682 206.687 196.037 206.687 192.911V191.228C206.687 188.103 204.042 185.458 200.917 185.458H163.167C159.801 185.458 155.954 185.698 155.954 193.633C155.954 197.72 159.801 198.682 162.927 198.682ZM185.047 87.1165H171.823C169.659 87.1165 167.495 87.357 167.495 89.2805C167.495 90.4827 174.708 99.1387 178.075 99.1387C181.441 99.1387 189.135 90.7232 189.135 89.2805C189.135 87.1165 186.49 87.1165 185.047 87.1165ZM163.408 160.452H199.474C201.878 160.452 206.206 159.971 206.206 155.643C206.206 149.872 205.485 149.151 201.398 147.468C196.589 145.544 189.856 142.418 185.528 140.014C182.403 138.331 180.719 137.61 177.353 137.61C174.468 137.61 171.583 139.052 167.014 141.216C164.61 142.418 161.484 143.861 157.637 145.544C156.435 146.025 154.752 146.746 154.752 147.949C154.752 149.632 156.916 149.872 158.118 149.872C159.801 150.113 163.167 150.353 163.167 152.757C163.167 154.2 161.724 154.921 160.763 155.402C159.801 155.883 158.599 156.605 158.599 157.807C158.599 160.452 161.484 160.452 163.408 160.452ZM238.666 169.348V230.421C238.666 237.874 239.388 246.29 239.388 252.06C239.388 257.35 236.743 257.831 229.77 257.831H215.824C209.092 257.831 205.966 257.35 205.966 252.06C205.966 246.53 206.687 238.836 206.687 231.863V230.661C206.687 225.612 203.321 223.688 198.993 223.688H155.954C148.019 223.688 145.855 226.333 142.008 232.825C138.402 239.076 126.139 258.071 118.685 258.071C111.472 258.071 95.6027 245.809 95.6027 238.836C95.6027 235.71 98.2476 233.306 99.9307 231.382C116.04 213.83 125.658 193.633 125.658 169.829V165.02C125.658 162.135 125.658 159.249 121.811 159.249C120.128 159.249 116.521 161.173 112.674 161.173C105.701 161.173 97.0453 140.495 97.0453 135.446C97.0453 132.56 98.9689 131.839 108.106 129.675C118.685 127.03 131.429 123.183 142.97 118.855C144.893 118.134 147.057 117.412 147.057 114.767C147.057 112.844 145.134 110.68 143.691 109.478C139.363 104.909 134.074 97.9365 130.948 92.6467C128.784 89.0401 125.658 87.357 121.571 87.357C118.926 87.357 116.281 87.5974 113.636 87.5974C107.865 87.5974 107.625 85.193 107.625 77.2584V69.3238C107.625 61.1487 108.106 58.9847 113.876 58.9847C123.254 58.9847 132.871 59.4656 142.249 59.4656H153.549C159.801 59.4656 161.244 55.3781 161.244 52.9736C161.244 50.3288 160.763 46.2412 160.763 43.8368C160.763 40.711 162.927 39.7493 165.572 39.7493C168.457 39.7493 188.654 40.9515 193.944 41.4324C199.234 41.9133 203.081 42.1537 203.081 45.2795C203.081 47.203 201.878 48.1648 199.714 49.367C198.031 50.3288 197.31 51.7714 197.31 53.695C197.31 56.5803 199.234 59.4656 204.042 59.4656H221.595C230.972 59.4656 240.349 58.9847 249.967 58.9847C255.497 58.9847 255.978 60.9083 255.978 67.1598V78.4606C255.978 85.6739 255.497 87.5974 249.727 87.5974C245.399 87.5974 241.071 87.357 236.743 87.357C234.579 87.357 234.098 87.8379 233.857 88.5592C232.655 90.7232 231.693 90.9636 229.529 91.6849C226.644 92.6467 226.404 92.8872 224.48 95.7725C220.873 101.303 217.507 105.631 212.939 110.199C211.737 111.642 210.294 113.084 210.294 115.008C210.294 117.653 213.42 118.855 217.267 120.057C227.846 123.423 238.907 126.549 250.207 128.713C258.623 130.396 259.825 130.877 259.825 135.205C259.825 145.063 252.131 160.452 245.158 160.452C243.235 160.452 242.754 159.971 242.032 159.971C238.907 159.971 238.666 164.299 238.666 169.348Z" fill="white"/>
</g>
<defs>
<clipPath id="clip0_2485_83">
<rect width="300" height="300" fill="white"/>
</clipPath>
</defs>
</svg>
