<svg width="251" height="251" viewBox="0 0 251 251" fill="none" xmlns="http://www.w3.org/2000/svg">
<circle cx="125.5" cy="125.5" r="125" fill="#00847F"/>
<circle cx="125.425" cy="125.419" r="105.418" stroke="white" stroke-width="9.20024"/>
<path d="M67.6988 164.665L74.3125 104.196C74.4525 102.916 73.45 101.798 72.1622 101.798H57.0225C55.8278 101.798 54.8594 100.83 54.8594 99.6349V85.9454C54.8594 84.7507 55.8278 83.7822 57.0225 83.7822H194.784C195.978 83.7822 196.947 84.7507 196.947 85.9454V99.6349C196.947 100.83 195.978 101.798 194.784 101.798H180.651C179.368 101.798 178.367 102.909 178.5 104.185L184.801 164.676C184.934 165.952 183.933 167.063 182.649 167.063H174.295C173.242 167.063 172.342 166.304 172.163 165.266L161.564 103.595C161.385 102.557 160.485 101.798 159.432 101.798H92.4026C91.3368 101.798 90.4299 102.574 90.2654 103.627L80.6393 165.234C80.4748 166.287 79.5679 167.063 78.5021 167.063H69.8491C68.5613 167.063 67.5588 165.945 67.6988 164.665Z" fill="white"/>
</svg>
